<mxfile host="Electron" modified="2023-08-21T15:49:56.841Z" agent="Mozilla/5.0 (Windows NT 10.0; Win64; x64) AppleWebKit/537.36 (KHTML, like Gecko) draw.io/21.6.8 Chrome/114.0.5735.289 Electron/25.5.0 Safari/537.36" etag="3jFmV7dCLqEaLmrrwNLT" version="21.6.8" type="device">
  <diagram name="Page-1" id="TiDIDW8PdzmwlVwa-iWJ">
    <mxGraphModel dx="2712" dy="1981" grid="1" gridSize="10" guides="1" tooltips="1" connect="0" arrows="0" fold="1" page="0" pageScale="1" pageWidth="850" pageHeight="1100" math="0" shadow="0">
      <root>
        <mxCell id="0" />
        <mxCell id="1" parent="0" />
        <mxCell id="1gYb4sTMnEVi2AJFtTjA-1" value="NhanVien" style="whiteSpace=wrap;html=1;align=center;fontSize=16;fontStyle=1" parent="1" vertex="1">
          <mxGeometry x="280" y="379" width="120" height="60" as="geometry" />
        </mxCell>
        <mxCell id="1gYb4sTMnEVi2AJFtTjA-3" value="KhachHang" style="whiteSpace=wrap;html=1;align=center;fontSize=16;fontStyle=1" parent="1" vertex="1">
          <mxGeometry x="-206.5" y="-149" width="120" height="80" as="geometry" />
        </mxCell>
        <mxCell id="1gYb4sTMnEVi2AJFtTjA-4" value="CÓ" style="shape=rhombus;perimeter=rhombusPerimeter;whiteSpace=wrap;html=1;align=center;fontSize=16;fontStyle=1" parent="1" vertex="1">
          <mxGeometry x="-206.5" y="60" width="120" height="60" as="geometry" />
        </mxCell>
        <mxCell id="1gYb4sTMnEVi2AJFtTjA-5" value="TaiKhoan KhachHang" style="whiteSpace=wrap;html=1;align=center;fontSize=16;fontStyle=1" parent="1" vertex="1">
          <mxGeometry x="-206.5" y="200" width="122" height="80" as="geometry" />
        </mxCell>
        <mxCell id="1gYb4sTMnEVi2AJFtTjA-8" value="" style="fontSize=16;html=1;endArrow=ERzeroToOne;endFill=1;rounded=0;startSize=8;endSize=8;fontStyle=1" parent="1" source="1gYb4sTMnEVi2AJFtTjA-4" target="1gYb4sTMnEVi2AJFtTjA-5" edge="1">
          <mxGeometry width="100" height="100" relative="1" as="geometry">
            <mxPoint x="289.5" y="-18" as="sourcePoint" />
            <mxPoint x="149.5" y="-58" as="targetPoint" />
          </mxGeometry>
        </mxCell>
        <mxCell id="1gYb4sTMnEVi2AJFtTjA-10" value="" style="fontSize=16;html=1;endArrow=ERmandOne;rounded=0;startSize=8;endSize=8;fontStyle=1" parent="1" source="1gYb4sTMnEVi2AJFtTjA-4" target="1gYb4sTMnEVi2AJFtTjA-3" edge="1">
          <mxGeometry width="100" height="100" relative="1" as="geometry">
            <mxPoint x="-150.5" y="72" as="sourcePoint" />
            <mxPoint x="-50.5" y="-28" as="targetPoint" />
          </mxGeometry>
        </mxCell>
        <mxCell id="1gYb4sTMnEVi2AJFtTjA-16" value="NhanVien QuanLy" style="whiteSpace=wrap;html=1;align=center;fontSize=16;fontStyle=1" parent="1" vertex="1">
          <mxGeometry x="680" y="564" width="120" height="60" as="geometry" />
        </mxCell>
        <mxCell id="1gYb4sTMnEVi2AJFtTjA-17" value="NhanVien VanChuyen" style="whiteSpace=wrap;html=1;align=center;fontSize=16;fontStyle=1" parent="1" vertex="1">
          <mxGeometry x="-280" y="564" width="120" height="60" as="geometry" />
        </mxCell>
        <mxCell id="1gYb4sTMnEVi2AJFtTjA-18" value="NhanVienKho" style="whiteSpace=wrap;html=1;align=center;fontSize=16;fontStyle=1" parent="1" vertex="1">
          <mxGeometry x="40" y="564" width="120" height="60" as="geometry" />
        </mxCell>
        <mxCell id="1gYb4sTMnEVi2AJFtTjA-19" value="NhanVien KyThuat" style="whiteSpace=wrap;html=1;align=center;fontSize=16;fontStyle=1" parent="1" vertex="1">
          <mxGeometry x="360" y="564" width="120" height="60" as="geometry" />
        </mxCell>
        <mxCell id="1gYb4sTMnEVi2AJFtTjA-39" style="edgeStyle=none;curved=1;rounded=0;orthogonalLoop=1;jettySize=auto;html=1;fontSize=16;startSize=8;endSize=8;endArrow=none;endFill=0;fontStyle=1" parent="1" source="1gYb4sTMnEVi2AJFtTjA-38" target="1gYb4sTMnEVi2AJFtTjA-1" edge="1">
          <mxGeometry relative="1" as="geometry" />
        </mxCell>
        <mxCell id="1gYb4sTMnEVi2AJFtTjA-38" value="MaNhanVien" style="ellipse;whiteSpace=wrap;html=1;align=center;fontStyle=5;fontSize=16;" parent="1" vertex="1">
          <mxGeometry x="70" y="308" width="120" height="66" as="geometry" />
        </mxCell>
        <mxCell id="1gYb4sTMnEVi2AJFtTjA-41" style="edgeStyle=none;curved=1;rounded=0;orthogonalLoop=1;jettySize=auto;html=1;fontSize=16;startSize=8;endSize=8;endArrow=none;endFill=0;fontStyle=1" parent="1" source="1gYb4sTMnEVi2AJFtTjA-40" target="1gYb4sTMnEVi2AJFtTjA-1" edge="1">
          <mxGeometry relative="1" as="geometry" />
        </mxCell>
        <mxCell id="1gYb4sTMnEVi2AJFtTjA-40" value="TenNhanVien" style="ellipse;whiteSpace=wrap;html=1;align=center;fontSize=16;fontStyle=1" parent="1" vertex="1">
          <mxGeometry x="190" y="146" width="119" height="68" as="geometry" />
        </mxCell>
        <mxCell id="1gYb4sTMnEVi2AJFtTjA-42" value="DiaChi" style="ellipse;whiteSpace=wrap;html=1;align=center;fontSize=16;fontStyle=1" parent="1" vertex="1">
          <mxGeometry x="350" y="140" width="120" height="68" as="geometry" />
        </mxCell>
        <mxCell id="1gYb4sTMnEVi2AJFtTjA-43" style="edgeStyle=none;curved=1;rounded=0;orthogonalLoop=1;jettySize=auto;html=1;fontSize=16;startSize=8;endSize=8;endArrow=none;endFill=0;fontStyle=1" parent="1" source="1gYb4sTMnEVi2AJFtTjA-42" target="1gYb4sTMnEVi2AJFtTjA-1" edge="1">
          <mxGeometry relative="1" as="geometry">
            <mxPoint x="354" y="326" as="sourcePoint" />
            <mxPoint x="351" y="389" as="targetPoint" />
          </mxGeometry>
        </mxCell>
        <mxCell id="1gYb4sTMnEVi2AJFtTjA-44" value="SoDienThoai" style="ellipse;whiteSpace=wrap;html=1;align=center;fontSize=16;fontStyle=1" parent="1" vertex="1">
          <mxGeometry x="450" y="206" width="120" height="68" as="geometry" />
        </mxCell>
        <mxCell id="1gYb4sTMnEVi2AJFtTjA-45" style="edgeStyle=none;curved=1;rounded=0;orthogonalLoop=1;jettySize=auto;html=1;fontSize=16;startSize=8;endSize=8;endArrow=none;endFill=0;fontStyle=1" parent="1" source="1gYb4sTMnEVi2AJFtTjA-44" target="1gYb4sTMnEVi2AJFtTjA-1" edge="1">
          <mxGeometry relative="1" as="geometry">
            <mxPoint x="453" y="322" as="sourcePoint" />
            <mxPoint x="382" y="389" as="targetPoint" />
          </mxGeometry>
        </mxCell>
        <mxCell id="1gYb4sTMnEVi2AJFtTjA-46" value="NgaySinh" style="ellipse;whiteSpace=wrap;html=1;align=center;fontSize=16;fontStyle=1" parent="1" vertex="1">
          <mxGeometry x="140" y="375" width="120" height="68" as="geometry" />
        </mxCell>
        <mxCell id="1gYb4sTMnEVi2AJFtTjA-47" style="edgeStyle=none;curved=1;rounded=0;orthogonalLoop=1;jettySize=auto;html=1;fontSize=16;startSize=8;endSize=8;endArrow=none;endFill=0;fontStyle=1" parent="1" source="1gYb4sTMnEVi2AJFtTjA-46" target="1gYb4sTMnEVi2AJFtTjA-1" edge="1">
          <mxGeometry relative="1" as="geometry">
            <mxPoint x="260" y="322" as="sourcePoint" />
            <mxPoint x="322" y="389" as="targetPoint" />
          </mxGeometry>
        </mxCell>
        <mxCell id="1gYb4sTMnEVi2AJFtTjA-48" value="GioiTinh" style="ellipse;whiteSpace=wrap;html=1;align=center;fontSize=16;fontStyle=1" parent="1" vertex="1">
          <mxGeometry x="455.5" y="296" width="120" height="68" as="geometry" />
        </mxCell>
        <mxCell id="1gYb4sTMnEVi2AJFtTjA-49" style="edgeStyle=none;curved=1;rounded=0;orthogonalLoop=1;jettySize=auto;html=1;fontSize=16;startSize=8;endSize=8;endArrow=none;endFill=0;fontStyle=1" parent="1" source="1gYb4sTMnEVi2AJFtTjA-48" target="1gYb4sTMnEVi2AJFtTjA-1" edge="1">
          <mxGeometry relative="1" as="geometry">
            <mxPoint x="232" y="363" as="sourcePoint" />
            <mxPoint x="290" y="391" as="targetPoint" />
          </mxGeometry>
        </mxCell>
        <mxCell id="1gYb4sTMnEVi2AJFtTjA-50" value="SoNam KinhNghiem" style="ellipse;whiteSpace=wrap;html=1;align=center;fontSize=16;fontStyle=1" parent="1" vertex="1">
          <mxGeometry x="720" y="454" width="120" height="68" as="geometry" />
        </mxCell>
        <mxCell id="1gYb4sTMnEVi2AJFtTjA-51" style="edgeStyle=none;curved=1;rounded=0;orthogonalLoop=1;jettySize=auto;html=1;fontSize=16;startSize=8;endSize=8;endArrow=none;endFill=0;fontStyle=1" parent="1" source="1gYb4sTMnEVi2AJFtTjA-16" target="1gYb4sTMnEVi2AJFtTjA-50" edge="1">
          <mxGeometry relative="1" as="geometry">
            <mxPoint x="800" y="593.58" as="sourcePoint" />
            <mxPoint x="842" y="593.58" as="targetPoint" />
          </mxGeometry>
        </mxCell>
        <mxCell id="1gYb4sTMnEVi2AJFtTjA-52" value="ChucVu TrongKho" style="ellipse;whiteSpace=wrap;html=1;align=center;fontSize=16;fontStyle=1" parent="1" vertex="1">
          <mxGeometry x="200" y="560" width="120" height="68" as="geometry" />
        </mxCell>
        <mxCell id="1gYb4sTMnEVi2AJFtTjA-53" style="edgeStyle=none;curved=1;rounded=0;orthogonalLoop=1;jettySize=auto;html=1;fontSize=16;startSize=8;endSize=8;endArrow=none;endFill=0;fontStyle=1" parent="1" source="1gYb4sTMnEVi2AJFtTjA-52" target="1gYb4sTMnEVi2AJFtTjA-18" edge="1">
          <mxGeometry relative="1" as="geometry">
            <mxPoint x="216" y="603" as="sourcePoint" />
            <mxPoint x="140" y="603" as="targetPoint" />
          </mxGeometry>
        </mxCell>
        <mxCell id="1gYb4sTMnEVi2AJFtTjA-54" value="BangCap KyThuat" style="ellipse;whiteSpace=wrap;html=1;align=center;fontSize=16;fontStyle=1" parent="1" vertex="1">
          <mxGeometry x="520" y="560" width="120" height="68" as="geometry" />
        </mxCell>
        <mxCell id="1gYb4sTMnEVi2AJFtTjA-55" style="edgeStyle=none;curved=1;rounded=0;orthogonalLoop=1;jettySize=auto;html=1;fontSize=16;startSize=8;endSize=8;endArrow=none;endFill=0;fontStyle=1" parent="1" source="1gYb4sTMnEVi2AJFtTjA-54" target="1gYb4sTMnEVi2AJFtTjA-19" edge="1">
          <mxGeometry relative="1" as="geometry">
            <mxPoint x="400" y="513" as="sourcePoint" />
            <mxPoint x="360" y="513" as="targetPoint" />
          </mxGeometry>
        </mxCell>
        <mxCell id="1gYb4sTMnEVi2AJFtTjA-58" value="GiayPhep LaiXe" style="ellipse;whiteSpace=wrap;html=1;align=center;fontSize=16;fontStyle=1" parent="1" vertex="1">
          <mxGeometry x="-120" y="560" width="120" height="68" as="geometry" />
        </mxCell>
        <mxCell id="1gYb4sTMnEVi2AJFtTjA-59" style="edgeStyle=none;curved=1;rounded=0;orthogonalLoop=1;jettySize=auto;html=1;fontSize=16;startSize=8;endSize=8;endArrow=none;endFill=0;fontStyle=1" parent="1" source="1gYb4sTMnEVi2AJFtTjA-58" target="1gYb4sTMnEVi2AJFtTjA-17" edge="1">
          <mxGeometry relative="1" as="geometry">
            <mxPoint x="-120" y="593.71" as="sourcePoint" />
            <mxPoint x="-160" y="593.71" as="targetPoint" />
          </mxGeometry>
        </mxCell>
        <mxCell id="1gYb4sTMnEVi2AJFtTjA-60" value="NgayNham CHuc" style="ellipse;whiteSpace=wrap;html=1;align=center;fontSize=16;fontStyle=1" parent="1" vertex="1">
          <mxGeometry x="590" y="453" width="120" height="68" as="geometry" />
        </mxCell>
        <mxCell id="1gYb4sTMnEVi2AJFtTjA-61" style="edgeStyle=none;curved=1;rounded=0;orthogonalLoop=1;jettySize=auto;html=1;fontSize=16;startSize=8;endSize=8;endArrow=none;endFill=0;fontStyle=1" parent="1" source="1gYb4sTMnEVi2AJFtTjA-60" target="1gYb4sTMnEVi2AJFtTjA-16" edge="1">
          <mxGeometry relative="1" as="geometry">
            <mxPoint x="651" y="593.71" as="sourcePoint" />
            <mxPoint x="692" y="593.71" as="targetPoint" />
          </mxGeometry>
        </mxCell>
        <mxCell id="1gYb4sTMnEVi2AJFtTjA-62" value="SoDienThoai" style="ellipse;whiteSpace=wrap;html=1;align=center;fontStyle=5;fontSize=16;" parent="1" vertex="1">
          <mxGeometry x="-70" y="-190" width="120" height="66" as="geometry" />
        </mxCell>
        <mxCell id="1gYb4sTMnEVi2AJFtTjA-63" value="TenTaiKhoan" style="ellipse;whiteSpace=wrap;html=1;align=center;fontStyle=5;fontSize=16;" parent="1" vertex="1">
          <mxGeometry x="-80" y="366" width="120" height="66" as="geometry" />
        </mxCell>
        <mxCell id="1gYb4sTMnEVi2AJFtTjA-64" value="TenKhachHang" style="ellipse;whiteSpace=wrap;html=1;align=center;fontSize=16;fontStyle=1" parent="1" vertex="1">
          <mxGeometry x="-170" y="-270" width="119" height="68" as="geometry" />
        </mxCell>
        <mxCell id="1gYb4sTMnEVi2AJFtTjA-65" value="GioiTinh" style="ellipse;whiteSpace=wrap;html=1;align=center;fontSize=16;fontStyle=1" parent="1" vertex="1">
          <mxGeometry x="-289" y="-230" width="119" height="68" as="geometry" />
        </mxCell>
        <mxCell id="1gYb4sTMnEVi2AJFtTjA-66" value="NamSinh" style="ellipse;whiteSpace=wrap;html=1;align=center;fontSize=16;fontStyle=1" parent="1" vertex="1">
          <mxGeometry x="-110" y="-22" width="119" height="68" as="geometry" />
        </mxCell>
        <mxCell id="1gYb4sTMnEVi2AJFtTjA-67" style="edgeStyle=none;curved=1;rounded=0;orthogonalLoop=1;jettySize=auto;html=1;fontSize=16;startSize=8;endSize=8;endArrow=none;endFill=0;fontStyle=1" parent="1" source="1gYb4sTMnEVi2AJFtTjA-62" target="1gYb4sTMnEVi2AJFtTjA-3" edge="1">
          <mxGeometry relative="1" as="geometry">
            <mxPoint x="-221.5" y="-235" as="sourcePoint" />
            <mxPoint x="-180.5" y="-172" as="targetPoint" />
          </mxGeometry>
        </mxCell>
        <mxCell id="1gYb4sTMnEVi2AJFtTjA-68" style="edgeStyle=none;curved=1;rounded=0;orthogonalLoop=1;jettySize=auto;html=1;fontSize=16;startSize=8;endSize=8;endArrow=none;endFill=0;fontStyle=1" parent="1" source="1gYb4sTMnEVi2AJFtTjA-64" target="1gYb4sTMnEVi2AJFtTjA-3" edge="1">
          <mxGeometry relative="1" as="geometry">
            <mxPoint x="-153.5" y="-192" as="sourcePoint" />
            <mxPoint x="-157.5" y="-138" as="targetPoint" />
          </mxGeometry>
        </mxCell>
        <mxCell id="1gYb4sTMnEVi2AJFtTjA-69" style="edgeStyle=none;curved=1;rounded=0;orthogonalLoop=1;jettySize=auto;html=1;fontSize=16;startSize=8;endSize=8;endArrow=none;endFill=0;fontStyle=1" parent="1" source="1gYb4sTMnEVi2AJFtTjA-65" target="1gYb4sTMnEVi2AJFtTjA-3" edge="1">
          <mxGeometry relative="1" as="geometry">
            <mxPoint x="-153.5" y="-200" as="sourcePoint" />
            <mxPoint x="-158.5" y="-138" as="targetPoint" />
          </mxGeometry>
        </mxCell>
        <mxCell id="1gYb4sTMnEVi2AJFtTjA-70" style="edgeStyle=none;curved=1;rounded=0;orthogonalLoop=1;jettySize=auto;html=1;fontSize=16;startSize=8;endSize=8;endArrow=none;endFill=0;fontStyle=1" parent="1" source="1gYb4sTMnEVi2AJFtTjA-66" target="1gYb4sTMnEVi2AJFtTjA-3" edge="1">
          <mxGeometry relative="1" as="geometry">
            <mxPoint x="-153.5" y="-200" as="sourcePoint" />
            <mxPoint x="-158.5" y="-138" as="targetPoint" />
          </mxGeometry>
        </mxCell>
        <mxCell id="1gYb4sTMnEVi2AJFtTjA-73" value="NgayTao" style="ellipse;whiteSpace=wrap;html=1;align=center;fontSize=16;fontStyle=1" parent="1" vertex="1">
          <mxGeometry x="-51" y="132" width="119" height="68" as="geometry" />
        </mxCell>
        <mxCell id="1gYb4sTMnEVi2AJFtTjA-75" value="MatKhau" style="ellipse;whiteSpace=wrap;html=1;align=center;fontSize=16;fontStyle=1" parent="1" vertex="1">
          <mxGeometry x="-40" y="240" width="119" height="68" as="geometry" />
        </mxCell>
        <mxCell id="1gYb4sTMnEVi2AJFtTjA-76" value="TrangThai TaiKhoan" style="ellipse;whiteSpace=wrap;html=1;align=center;fontSize=16;fontStyle=1" parent="1" vertex="1">
          <mxGeometry x="-270" y="371" width="119" height="68" as="geometry" />
        </mxCell>
        <mxCell id="1gYb4sTMnEVi2AJFtTjA-77" style="edgeStyle=none;curved=1;rounded=0;orthogonalLoop=1;jettySize=auto;html=1;fontSize=16;startSize=8;endSize=8;endArrow=none;endFill=0;fontStyle=1" parent="1" source="1gYb4sTMnEVi2AJFtTjA-63" target="1gYb4sTMnEVi2AJFtTjA-5" edge="1">
          <mxGeometry relative="1" as="geometry">
            <mxPoint x="-372" y="104" as="sourcePoint" />
            <mxPoint x="-373" y="168" as="targetPoint" />
          </mxGeometry>
        </mxCell>
        <mxCell id="1gYb4sTMnEVi2AJFtTjA-78" style="edgeStyle=none;curved=1;rounded=0;orthogonalLoop=1;jettySize=auto;html=1;fontSize=16;startSize=8;endSize=8;endArrow=none;endFill=0;fontStyle=1" parent="1" source="1gYb4sTMnEVi2AJFtTjA-73" target="1gYb4sTMnEVi2AJFtTjA-5" edge="1">
          <mxGeometry relative="1" as="geometry">
            <mxPoint x="-336" y="81" as="sourcePoint" />
            <mxPoint x="-262" y="178" as="targetPoint" />
          </mxGeometry>
        </mxCell>
        <mxCell id="1gYb4sTMnEVi2AJFtTjA-80" style="edgeStyle=none;curved=1;rounded=0;orthogonalLoop=1;jettySize=auto;html=1;fontSize=16;startSize=8;endSize=8;endArrow=none;endFill=0;fontStyle=1" parent="1" source="1gYb4sTMnEVi2AJFtTjA-76" target="1gYb4sTMnEVi2AJFtTjA-5" edge="1">
          <mxGeometry relative="1" as="geometry">
            <mxPoint x="-126" y="82" as="sourcePoint" />
            <mxPoint x="-212" y="178" as="targetPoint" />
          </mxGeometry>
        </mxCell>
        <mxCell id="1gYb4sTMnEVi2AJFtTjA-81" style="edgeStyle=none;curved=1;rounded=0;orthogonalLoop=1;jettySize=auto;html=1;fontSize=16;startSize=8;endSize=8;endArrow=none;endFill=0;fontStyle=1" parent="1" source="1gYb4sTMnEVi2AJFtTjA-75" target="1gYb4sTMnEVi2AJFtTjA-5" edge="1">
          <mxGeometry relative="1" as="geometry">
            <mxPoint x="-144" y="156" as="sourcePoint" />
            <mxPoint x="-185" y="178" as="targetPoint" />
          </mxGeometry>
        </mxCell>
        <mxCell id="1gYb4sTMnEVi2AJFtTjA-83" value="" style="endArrow=none;html=1;rounded=0;fontSize=16;startSize=8;endSize=8;curved=1;fontStyle=1" parent="1" source="1gYb4sTMnEVi2AJFtTjA-84" target="1gYb4sTMnEVi2AJFtTjA-1" edge="1">
          <mxGeometry relative="1" as="geometry">
            <mxPoint x="160" y="470" as="sourcePoint" />
            <mxPoint x="280" y="500" as="targetPoint" />
          </mxGeometry>
        </mxCell>
        <mxCell id="1gYb4sTMnEVi2AJFtTjA-84" value="d" style="strokeWidth=2;html=1;shape=mxgraph.flowchart.start_2;whiteSpace=wrap;fontSize=16;labelPosition=center;verticalLabelPosition=middle;align=center;verticalAlign=middle;fontFamily=Helvetica;fontStyle=1" parent="1" vertex="1">
          <mxGeometry x="120" y="470" width="20" height="20" as="geometry" />
        </mxCell>
        <mxCell id="1gYb4sTMnEVi2AJFtTjA-85" value="" style="endArrow=none;html=1;rounded=0;fontSize=16;startSize=8;endSize=8;curved=1;fontStyle=1" parent="1" source="1gYb4sTMnEVi2AJFtTjA-17" target="1gYb4sTMnEVi2AJFtTjA-84" edge="1">
          <mxGeometry relative="1" as="geometry">
            <mxPoint x="-184" y="538" as="sourcePoint" />
            <mxPoint x="-44" y="490" as="targetPoint" />
          </mxGeometry>
        </mxCell>
        <mxCell id="1gYb4sTMnEVi2AJFtTjA-86" value="" style="endArrow=none;html=1;rounded=0;fontSize=16;startSize=8;endSize=8;curved=1;fontStyle=1" parent="1" source="1gYb4sTMnEVi2AJFtTjA-18" target="1gYb4sTMnEVi2AJFtTjA-84" edge="1">
          <mxGeometry relative="1" as="geometry">
            <mxPoint x="-150" y="584" as="sourcePoint" />
            <mxPoint x="130" y="493" as="targetPoint" />
          </mxGeometry>
        </mxCell>
        <mxCell id="1gYb4sTMnEVi2AJFtTjA-87" value="" style="endArrow=none;html=1;rounded=0;fontSize=16;startSize=8;endSize=8;curved=1;fontStyle=1" parent="1" source="1gYb4sTMnEVi2AJFtTjA-19" target="1gYb4sTMnEVi2AJFtTjA-84" edge="1">
          <mxGeometry relative="1" as="geometry">
            <mxPoint x="118" y="574" as="sourcePoint" />
            <mxPoint x="137" y="500" as="targetPoint" />
          </mxGeometry>
        </mxCell>
        <mxCell id="1gYb4sTMnEVi2AJFtTjA-88" value="" style="shape=requiredInterface;html=1;verticalLabelPosition=bottom;sketch=0;fontSize=16;rotation=-210;fontStyle=1" parent="1" vertex="1">
          <mxGeometry x="30" y="501" width="10" height="20" as="geometry" />
        </mxCell>
        <mxCell id="1gYb4sTMnEVi2AJFtTjA-90" value="" style="shape=requiredInterface;html=1;verticalLabelPosition=bottom;sketch=0;fontSize=16;rotation=110;fontStyle=1" parent="1" vertex="1">
          <mxGeometry x="112" y="518" width="10" height="20" as="geometry" />
        </mxCell>
        <mxCell id="1gYb4sTMnEVi2AJFtTjA-91" value="" style="shape=requiredInterface;html=1;verticalLabelPosition=bottom;sketch=0;fontSize=16;rotation=35;fontStyle=1" parent="1" vertex="1">
          <mxGeometry x="230" y="510" width="10" height="20" as="geometry" />
        </mxCell>
        <mxCell id="1gYb4sTMnEVi2AJFtTjA-92" value="" style="endArrow=none;html=1;rounded=0;fontSize=16;startSize=8;endSize=8;curved=1;fontStyle=1" parent="1" source="1gYb4sTMnEVi2AJFtTjA-16" target="1gYb4sTMnEVi2AJFtTjA-1" edge="1">
          <mxGeometry relative="1" as="geometry">
            <mxPoint x="406" y="535" as="sourcePoint" />
            <mxPoint x="546" y="487" as="targetPoint" />
          </mxGeometry>
        </mxCell>
        <mxCell id="1gYb4sTMnEVi2AJFtTjA-93" value="" style="shape=requiredInterface;html=1;verticalLabelPosition=bottom;sketch=0;fontSize=16;rotation=35;fontStyle=1" parent="1" vertex="1">
          <mxGeometry x="510" y="478" width="10" height="20" as="geometry" />
        </mxCell>
        <mxCell id="1gYb4sTMnEVi2AJFtTjA-94" value="Luong" style="ellipse;whiteSpace=wrap;html=1;align=center;fontSize=16;fontStyle=1" parent="1" vertex="1">
          <mxGeometry x="120" y="228" width="120" height="68" as="geometry" />
        </mxCell>
        <mxCell id="1gYb4sTMnEVi2AJFtTjA-95" style="edgeStyle=none;curved=1;rounded=0;orthogonalLoop=1;jettySize=auto;html=1;fontSize=16;startSize=8;endSize=8;endArrow=none;endFill=0;fontStyle=1" parent="1" source="1gYb4sTMnEVi2AJFtTjA-94" target="1gYb4sTMnEVi2AJFtTjA-1" edge="1">
          <mxGeometry relative="1" as="geometry">
            <mxPoint x="410" y="326" as="sourcePoint" />
            <mxPoint x="369" y="389" as="targetPoint" />
          </mxGeometry>
        </mxCell>
        <mxCell id="1gYb4sTMnEVi2AJFtTjA-96" value="DiaChi" style="ellipse;whiteSpace=wrap;html=1;align=center;fontSize=16;fontStyle=1" parent="1" vertex="1">
          <mxGeometry x="-40" y="-90" width="119" height="68" as="geometry" />
        </mxCell>
        <mxCell id="1gYb4sTMnEVi2AJFtTjA-97" style="edgeStyle=none;curved=1;rounded=0;orthogonalLoop=1;jettySize=auto;html=1;fontSize=16;startSize=8;endSize=8;endArrow=none;endFill=0;fontStyle=1" parent="1" source="1gYb4sTMnEVi2AJFtTjA-96" target="1gYb4sTMnEVi2AJFtTjA-3" edge="1">
          <mxGeometry relative="1" as="geometry">
            <mxPoint x="-260.5" y="-36" as="sourcePoint" />
            <mxPoint x="-196.5" y="-69" as="targetPoint" />
          </mxGeometry>
        </mxCell>
        <mxCell id="1gYb4sTMnEVi2AJFtTjA-98" value="DonHang" style="whiteSpace=wrap;html=1;align=center;fontSize=16;fontStyle=1" parent="1" vertex="1">
          <mxGeometry x="280" y="-149" width="120" height="80" as="geometry" />
        </mxCell>
        <mxCell id="1gYb4sTMnEVi2AJFtTjA-99" value="XUẤT" style="shape=rhombus;perimeter=rhombusPerimeter;whiteSpace=wrap;html=1;align=center;fontSize=16;fontStyle=1" parent="1" vertex="1">
          <mxGeometry x="280" y="86" width="120" height="60" as="geometry" />
        </mxCell>
        <mxCell id="1gYb4sTMnEVi2AJFtTjA-100" value="ĐẶT HÀNG" style="shape=rhombus;perimeter=rhombusPerimeter;whiteSpace=wrap;html=1;align=center;fontSize=16;fontStyle=1" parent="1" vertex="1">
          <mxGeometry x="40" y="-139" width="120" height="60" as="geometry" />
        </mxCell>
        <mxCell id="1gYb4sTMnEVi2AJFtTjA-101" value="" style="fontSize=16;html=1;endArrow=ERoneToMany;rounded=0;startSize=8;endSize=8;fontStyle=1" parent="1" source="1gYb4sTMnEVi2AJFtTjA-100" target="1gYb4sTMnEVi2AJFtTjA-98" edge="1">
          <mxGeometry width="100" height="100" relative="1" as="geometry">
            <mxPoint x="60" y="60" as="sourcePoint" />
            <mxPoint x="160" y="-40" as="targetPoint" />
          </mxGeometry>
        </mxCell>
        <mxCell id="1gYb4sTMnEVi2AJFtTjA-102" value="" style="fontSize=16;html=1;endArrow=ERmandOne;rounded=0;startSize=8;endSize=8;fontStyle=1" parent="1" source="1gYb4sTMnEVi2AJFtTjA-100" target="1gYb4sTMnEVi2AJFtTjA-3" edge="1">
          <mxGeometry width="100" height="100" relative="1" as="geometry">
            <mxPoint x="-136" y="-208" as="sourcePoint" />
            <mxPoint x="-136" y="-139" as="targetPoint" />
          </mxGeometry>
        </mxCell>
        <mxCell id="1gYb4sTMnEVi2AJFtTjA-104" value="" style="fontSize=16;html=1;endArrow=ERzeroToMany;endFill=1;rounded=0;startSize=8;endSize=8;fontStyle=1" parent="1" source="1gYb4sTMnEVi2AJFtTjA-99" target="1gYb4sTMnEVi2AJFtTjA-98" edge="1">
          <mxGeometry width="100" height="100" relative="1" as="geometry">
            <mxPoint x="60" y="110" as="sourcePoint" />
            <mxPoint x="160" y="10" as="targetPoint" />
          </mxGeometry>
        </mxCell>
        <mxCell id="1gYb4sTMnEVi2AJFtTjA-105" value="" style="fontSize=16;html=1;endArrow=ERmandOne;rounded=0;startSize=8;endSize=8;fontStyle=1" parent="1" source="1gYb4sTMnEVi2AJFtTjA-99" target="1gYb4sTMnEVi2AJFtTjA-1" edge="1">
          <mxGeometry width="100" height="100" relative="1" as="geometry">
            <mxPoint x="339.47" y="150" as="sourcePoint" />
            <mxPoint x="339.47" y="219" as="targetPoint" />
          </mxGeometry>
        </mxCell>
        <mxCell id="1gYb4sTMnEVi2AJFtTjA-106" value="MonAn" style="whiteSpace=wrap;html=1;align=center;fontSize=16;fontStyle=1" parent="1" vertex="1">
          <mxGeometry x="750" y="-149" width="120" height="80" as="geometry" />
        </mxCell>
        <mxCell id="1gYb4sTMnEVi2AJFtTjA-107" value="MaDonHang" style="ellipse;whiteSpace=wrap;html=1;align=center;fontStyle=5;fontSize=16;" parent="1" vertex="1">
          <mxGeometry x="160" y="30" width="120" height="66" as="geometry" />
        </mxCell>
        <mxCell id="1gYb4sTMnEVi2AJFtTjA-109" value="NgayDatHang" style="ellipse;whiteSpace=wrap;html=1;align=center;fontSize=16;fontStyle=1" parent="1" vertex="1">
          <mxGeometry x="471.5" y="-50" width="119" height="68" as="geometry" />
        </mxCell>
        <mxCell id="1gYb4sTMnEVi2AJFtTjA-110" value="TongTien" style="ellipse;whiteSpace=wrap;html=1;align=center;fontSize=16;fontStyle=1;dashed=1;" parent="1" vertex="1">
          <mxGeometry x="361.5" y="18" width="119" height="68" as="geometry" />
        </mxCell>
        <mxCell id="1gYb4sTMnEVi2AJFtTjA-111" value="TrangThai DonHang" style="ellipse;html=1;align=center;fontSize=16;fontStyle=1;whiteSpace=wrap;" parent="1" vertex="1">
          <mxGeometry x="110" y="-79" width="120" height="66" as="geometry" />
        </mxCell>
        <mxCell id="1gYb4sTMnEVi2AJFtTjA-112" style="edgeStyle=none;curved=1;rounded=0;orthogonalLoop=1;jettySize=auto;html=1;fontSize=16;startSize=8;endSize=8;endArrow=none;endFill=0;fontStyle=1" parent="1" source="1gYb4sTMnEVi2AJFtTjA-107" target="1gYb4sTMnEVi2AJFtTjA-98" edge="1">
          <mxGeometry relative="1" as="geometry">
            <mxPoint x="280" y="-195.5" as="sourcePoint" />
            <mxPoint x="316" y="-172.5" as="targetPoint" />
          </mxGeometry>
        </mxCell>
        <mxCell id="1gYb4sTMnEVi2AJFtTjA-113" style="edgeStyle=none;curved=1;rounded=0;orthogonalLoop=1;jettySize=auto;html=1;fontSize=16;startSize=8;endSize=8;endArrow=none;endFill=0;fontStyle=1" parent="1" source="1gYb4sTMnEVi2AJFtTjA-111" target="1gYb4sTMnEVi2AJFtTjA-98" edge="1">
          <mxGeometry relative="1" as="geometry">
            <mxPoint x="302" y="-181" as="sourcePoint" />
            <mxPoint x="330" y="-165" as="targetPoint" />
          </mxGeometry>
        </mxCell>
        <mxCell id="1gYb4sTMnEVi2AJFtTjA-114" style="edgeStyle=none;curved=1;rounded=0;orthogonalLoop=1;jettySize=auto;html=1;fontSize=16;startSize=8;endSize=8;endArrow=none;endFill=0;fontStyle=1" parent="1" source="1gYb4sTMnEVi2AJFtTjA-109" target="1gYb4sTMnEVi2AJFtTjA-98" edge="1">
          <mxGeometry relative="1" as="geometry">
            <mxPoint x="280" y="-209" as="sourcePoint" />
            <mxPoint x="325" y="-139" as="targetPoint" />
          </mxGeometry>
        </mxCell>
        <mxCell id="1gYb4sTMnEVi2AJFtTjA-115" style="edgeStyle=none;curved=1;rounded=0;orthogonalLoop=1;jettySize=auto;html=1;fontSize=16;startSize=8;endSize=8;endArrow=none;endFill=0;fontStyle=1" parent="1" source="1gYb4sTMnEVi2AJFtTjA-110" target="1gYb4sTMnEVi2AJFtTjA-98" edge="1">
          <mxGeometry relative="1" as="geometry">
            <mxPoint x="393" y="-208" as="sourcePoint" />
            <mxPoint x="366" y="-139" as="targetPoint" />
          </mxGeometry>
        </mxCell>
        <mxCell id="1gYb4sTMnEVi2AJFtTjA-116" value="MaMonAn" style="ellipse;whiteSpace=wrap;html=1;align=center;fontStyle=5;fontSize=16;" parent="1" vertex="1">
          <mxGeometry x="630" y="-222" width="120" height="66" as="geometry" />
        </mxCell>
        <mxCell id="1gYb4sTMnEVi2AJFtTjA-117" value="TenMonAn" style="ellipse;whiteSpace=wrap;html=1;align=center;fontSize=16;fontStyle=1" parent="1" vertex="1">
          <mxGeometry x="700" y="-290" width="119" height="68" as="geometry" />
        </mxCell>
        <mxCell id="1gYb4sTMnEVi2AJFtTjA-118" value="MoTa" style="ellipse;whiteSpace=wrap;html=1;align=center;fontSize=16;fontStyle=1" parent="1" vertex="1">
          <mxGeometry x="829" y="-290" width="119" height="68" as="geometry" />
        </mxCell>
        <mxCell id="1gYb4sTMnEVi2AJFtTjA-120" value="Gia" style="ellipse;whiteSpace=wrap;html=1;align=center;fontSize=16;fontStyle=1" parent="1" vertex="1">
          <mxGeometry x="870" y="-222" width="119" height="68" as="geometry" />
        </mxCell>
        <mxCell id="1gYb4sTMnEVi2AJFtTjA-121" style="edgeStyle=none;curved=1;rounded=0;orthogonalLoop=1;jettySize=auto;html=1;fontSize=16;startSize=8;endSize=8;endArrow=none;endFill=0;fontStyle=1" parent="1" source="1gYb4sTMnEVi2AJFtTjA-116" target="1gYb4sTMnEVi2AJFtTjA-106" edge="1">
          <mxGeometry relative="1" as="geometry">
            <mxPoint x="787" y="-190" as="sourcePoint" />
            <mxPoint x="760" y="-121" as="targetPoint" />
          </mxGeometry>
        </mxCell>
        <mxCell id="1gYb4sTMnEVi2AJFtTjA-122" style="edgeStyle=none;curved=1;rounded=0;orthogonalLoop=1;jettySize=auto;html=1;fontSize=16;startSize=8;endSize=8;endArrow=none;endFill=0;fontStyle=1" parent="1" source="1gYb4sTMnEVi2AJFtTjA-117" target="1gYb4sTMnEVi2AJFtTjA-106" edge="1">
          <mxGeometry relative="1" as="geometry">
            <mxPoint x="770" y="-177" as="sourcePoint" />
            <mxPoint x="791" y="-162" as="targetPoint" />
          </mxGeometry>
        </mxCell>
        <mxCell id="1gYb4sTMnEVi2AJFtTjA-123" style="edgeStyle=none;curved=1;rounded=0;orthogonalLoop=1;jettySize=auto;html=1;fontSize=16;startSize=8;endSize=8;endArrow=none;endFill=0;fontStyle=1" parent="1" source="1gYb4sTMnEVi2AJFtTjA-118" target="1gYb4sTMnEVi2AJFtTjA-106" edge="1">
          <mxGeometry relative="1" as="geometry">
            <mxPoint x="781" y="-213" as="sourcePoint" />
            <mxPoint x="806" y="-139" as="targetPoint" />
          </mxGeometry>
        </mxCell>
        <mxCell id="1gYb4sTMnEVi2AJFtTjA-124" style="edgeStyle=none;curved=1;rounded=0;orthogonalLoop=1;jettySize=auto;html=1;fontSize=16;startSize=8;endSize=8;endArrow=none;endFill=0;fontStyle=1" parent="1" source="1gYb4sTMnEVi2AJFtTjA-120" target="1gYb4sTMnEVi2AJFtTjA-106" edge="1">
          <mxGeometry relative="1" as="geometry">
            <mxPoint x="881" y="-213" as="sourcePoint" />
            <mxPoint x="841" y="-139" as="targetPoint" />
          </mxGeometry>
        </mxCell>
        <mxCell id="1gYb4sTMnEVi2AJFtTjA-125" value="THUỘC" style="shape=rhombus;perimeter=rhombusPerimeter;whiteSpace=wrap;html=1;align=center;fontSize=16;fontStyle=1" parent="1" vertex="1">
          <mxGeometry x="520" y="-139" width="120" height="60" as="geometry" />
        </mxCell>
        <mxCell id="1gYb4sTMnEVi2AJFtTjA-126" value="" style="fontSize=16;html=1;endArrow=ERzeroToMany;endFill=1;rounded=0;startSize=8;endSize=8;fontStyle=1" parent="1" source="1gYb4sTMnEVi2AJFtTjA-125" target="1gYb4sTMnEVi2AJFtTjA-98" edge="1">
          <mxGeometry width="100" height="100" relative="1" as="geometry">
            <mxPoint x="455" y="40" as="sourcePoint" />
            <mxPoint x="455" y="-79" as="targetPoint" />
          </mxGeometry>
        </mxCell>
        <mxCell id="1gYb4sTMnEVi2AJFtTjA-127" value="" style="fontSize=16;html=1;endArrow=ERzeroToMany;endFill=1;rounded=0;startSize=8;endSize=8;fontStyle=1" parent="1" source="1gYb4sTMnEVi2AJFtTjA-125" target="1gYb4sTMnEVi2AJFtTjA-106" edge="1">
          <mxGeometry width="100" height="100" relative="1" as="geometry">
            <mxPoint x="870" y="-10" as="sourcePoint" />
            <mxPoint x="750" y="-10" as="targetPoint" />
          </mxGeometry>
        </mxCell>
        <mxCell id="1gYb4sTMnEVi2AJFtTjA-128" value="LoaiMonAn" style="whiteSpace=wrap;html=1;align=center;fontSize=16;fontStyle=1" parent="1" vertex="1">
          <mxGeometry x="750" y="200" width="120" height="80" as="geometry" />
        </mxCell>
        <mxCell id="1gYb4sTMnEVi2AJFtTjA-129" value="Thuộc" style="shape=rhombus;perimeter=rhombusPerimeter;whiteSpace=wrap;html=1;align=center;fontSize=16;fontStyle=1" parent="1" vertex="1">
          <mxGeometry x="750" y="40" width="120" height="60" as="geometry" />
        </mxCell>
        <mxCell id="1gYb4sTMnEVi2AJFtTjA-130" value="" style="fontSize=16;html=1;endArrow=ERmandOne;rounded=0;startSize=8;endSize=8;fontStyle=1" parent="1" source="1gYb4sTMnEVi2AJFtTjA-129" target="1gYb4sTMnEVi2AJFtTjA-128" edge="1">
          <mxGeometry width="100" height="100" relative="1" as="geometry">
            <mxPoint x="720" y="250" as="sourcePoint" />
            <mxPoint x="720" y="121" as="targetPoint" />
          </mxGeometry>
        </mxCell>
        <mxCell id="1gYb4sTMnEVi2AJFtTjA-131" value="" style="fontSize=16;html=1;endArrow=ERoneToMany;rounded=0;startSize=8;endSize=8;fontStyle=1" parent="1" source="1gYb4sTMnEVi2AJFtTjA-129" target="1gYb4sTMnEVi2AJFtTjA-106" edge="1">
          <mxGeometry width="100" height="100" relative="1" as="geometry">
            <mxPoint x="580" y="120" as="sourcePoint" />
            <mxPoint x="680" y="20" as="targetPoint" />
          </mxGeometry>
        </mxCell>
        <mxCell id="1gYb4sTMnEVi2AJFtTjA-132" value="MaLoai" style="ellipse;whiteSpace=wrap;html=1;align=center;fontStyle=5;fontSize=16;" parent="1" vertex="1">
          <mxGeometry x="590" y="200" width="120" height="66" as="geometry" />
        </mxCell>
        <mxCell id="1gYb4sTMnEVi2AJFtTjA-133" value="TenLoai" style="ellipse;whiteSpace=wrap;html=1;align=center;fontSize=16;fontStyle=1" parent="1" vertex="1">
          <mxGeometry x="780" y="318" width="119" height="68" as="geometry" />
        </mxCell>
        <mxCell id="1gYb4sTMnEVi2AJFtTjA-134" value="GhiChu" style="ellipse;whiteSpace=wrap;html=1;align=center;fontSize=16;fontStyle=1" parent="1" vertex="1">
          <mxGeometry x="620" y="318" width="119" height="68" as="geometry" />
        </mxCell>
        <mxCell id="1gYb4sTMnEVi2AJFtTjA-135" style="edgeStyle=none;curved=1;rounded=0;orthogonalLoop=1;jettySize=auto;html=1;fontSize=16;startSize=8;endSize=8;endArrow=none;endFill=0;fontStyle=1" parent="1" source="1gYb4sTMnEVi2AJFtTjA-132" target="1gYb4sTMnEVi2AJFtTjA-128" edge="1">
          <mxGeometry relative="1" as="geometry">
            <mxPoint x="705" y="133" as="sourcePoint" />
            <mxPoint x="730" y="207" as="targetPoint" />
          </mxGeometry>
        </mxCell>
        <mxCell id="1gYb4sTMnEVi2AJFtTjA-136" style="rounded=0;orthogonalLoop=1;jettySize=auto;html=1;fontSize=16;startSize=8;endSize=8;endArrow=none;endFill=0;fontStyle=1" parent="1" source="1gYb4sTMnEVi2AJFtTjA-128" target="1gYb4sTMnEVi2AJFtTjA-134" edge="1">
          <mxGeometry relative="1" as="geometry">
            <mxPoint x="730" y="307" as="sourcePoint" />
            <mxPoint x="770" y="308" as="targetPoint" />
          </mxGeometry>
        </mxCell>
        <mxCell id="1gYb4sTMnEVi2AJFtTjA-139" style="edgeStyle=none;curved=1;rounded=0;orthogonalLoop=1;jettySize=auto;html=1;fontSize=16;startSize=8;endSize=8;endArrow=none;endFill=0;fontStyle=1" parent="1" source="1gYb4sTMnEVi2AJFtTjA-128" target="1gYb4sTMnEVi2AJFtTjA-133" edge="1">
          <mxGeometry relative="1" as="geometry">
            <mxPoint x="900" y="298" as="sourcePoint" />
            <mxPoint x="940" y="298" as="targetPoint" />
          </mxGeometry>
        </mxCell>
        <mxCell id="1gYb4sTMnEVi2AJFtTjA-140" value="KhuyenMai" style="whiteSpace=wrap;html=1;align=center;fontSize=16;fontStyle=1" parent="1" vertex="1">
          <mxGeometry x="280" y="-500" width="120" height="80" as="geometry" />
        </mxCell>
        <mxCell id="1gYb4sTMnEVi2AJFtTjA-141" value="MaKhuyenMai" style="ellipse;whiteSpace=wrap;html=1;align=center;fontStyle=5;fontSize=16;" parent="1" vertex="1">
          <mxGeometry x="129" y="-374" width="120" height="66" as="geometry" />
        </mxCell>
        <mxCell id="1gYb4sTMnEVi2AJFtTjA-142" value="TenKhuyenMai" style="ellipse;whiteSpace=wrap;html=1;align=center;fontSize=16;fontStyle=1" parent="1" vertex="1">
          <mxGeometry x="-7" y="-368" width="119" height="68" as="geometry" />
        </mxCell>
        <mxCell id="1gYb4sTMnEVi2AJFtTjA-143" value="MoTa" style="ellipse;whiteSpace=wrap;html=1;align=center;fontSize=16;fontStyle=1" parent="1" vertex="1">
          <mxGeometry x="-7" y="-474" width="119" height="68" as="geometry" />
        </mxCell>
        <mxCell id="1gYb4sTMnEVi2AJFtTjA-144" value="NgayBatDau" style="ellipse;whiteSpace=wrap;html=1;align=center;fontSize=16;fontStyle=1" parent="1" vertex="1">
          <mxGeometry x="501" y="-364" width="119" height="68" as="geometry" />
        </mxCell>
        <mxCell id="1gYb4sTMnEVi2AJFtTjA-145" value="NgayKetThuc" style="ellipse;whiteSpace=wrap;html=1;align=center;fontSize=16;fontStyle=1" parent="1" vertex="1">
          <mxGeometry x="410" y="-298" width="119" height="68" as="geometry" />
        </mxCell>
        <mxCell id="1gYb4sTMnEVi2AJFtTjA-146" style="edgeStyle=none;curved=1;rounded=0;orthogonalLoop=1;jettySize=auto;html=1;fontSize=16;startSize=8;endSize=8;endArrow=none;endFill=0;fontStyle=1" parent="1" source="1gYb4sTMnEVi2AJFtTjA-141" target="1gYb4sTMnEVi2AJFtTjA-140" edge="1">
          <mxGeometry relative="1" as="geometry">
            <mxPoint x="260" y="-470" as="sourcePoint" />
            <mxPoint x="310" y="-400" as="targetPoint" />
          </mxGeometry>
        </mxCell>
        <mxCell id="1gYb4sTMnEVi2AJFtTjA-147" style="edgeStyle=none;curved=1;rounded=0;orthogonalLoop=1;jettySize=auto;html=1;fontSize=16;startSize=8;endSize=8;endArrow=none;endFill=0;fontStyle=1" parent="1" source="1gYb4sTMnEVi2AJFtTjA-142" target="1gYb4sTMnEVi2AJFtTjA-140" edge="1">
          <mxGeometry relative="1" as="geometry">
            <mxPoint x="240" y="-580" as="sourcePoint" />
            <mxPoint x="278" y="-578" as="targetPoint" />
          </mxGeometry>
        </mxCell>
        <mxCell id="1gYb4sTMnEVi2AJFtTjA-148" style="edgeStyle=none;curved=1;rounded=0;orthogonalLoop=1;jettySize=auto;html=1;fontSize=16;startSize=8;endSize=8;endArrow=none;endFill=0;fontStyle=1" parent="1" source="1gYb4sTMnEVi2AJFtTjA-143" target="1gYb4sTMnEVi2AJFtTjA-140" edge="1">
          <mxGeometry relative="1" as="geometry">
            <mxPoint x="240" y="-579" as="sourcePoint" />
            <mxPoint x="290" y="-547" as="targetPoint" />
          </mxGeometry>
        </mxCell>
        <mxCell id="1gYb4sTMnEVi2AJFtTjA-149" style="edgeStyle=none;curved=1;rounded=0;orthogonalLoop=1;jettySize=auto;html=1;fontSize=16;startSize=8;endSize=8;endArrow=none;endFill=0;fontStyle=1" parent="1" source="1gYb4sTMnEVi2AJFtTjA-144" target="1gYb4sTMnEVi2AJFtTjA-140" edge="1">
          <mxGeometry relative="1" as="geometry">
            <mxPoint x="335" y="-592" as="sourcePoint" />
            <mxPoint x="343" y="-550" as="targetPoint" />
          </mxGeometry>
        </mxCell>
        <mxCell id="1gYb4sTMnEVi2AJFtTjA-150" style="edgeStyle=none;curved=1;rounded=0;orthogonalLoop=1;jettySize=auto;html=1;fontSize=16;startSize=8;endSize=8;endArrow=none;endFill=0;fontStyle=1" parent="1" source="1gYb4sTMnEVi2AJFtTjA-145" target="1gYb4sTMnEVi2AJFtTjA-140" edge="1">
          <mxGeometry relative="1" as="geometry">
            <mxPoint x="438" y="-588" as="sourcePoint" />
            <mxPoint x="395" y="-550" as="targetPoint" />
          </mxGeometry>
        </mxCell>
        <mxCell id="1gYb4sTMnEVi2AJFtTjA-151" value="CÓ" style="shape=rhombus;perimeter=rhombusPerimeter;whiteSpace=wrap;html=1;align=center;fontSize=16;fontStyle=1" parent="1" vertex="1">
          <mxGeometry x="280" y="-360" width="120" height="60" as="geometry" />
        </mxCell>
        <mxCell id="1gYb4sTMnEVi2AJFtTjA-152" value="" style="fontSize=16;html=1;endArrow=ERoneToMany;rounded=0;startSize=8;endSize=8;fontStyle=1" parent="1" source="1gYb4sTMnEVi2AJFtTjA-151" target="1gYb4sTMnEVi2AJFtTjA-98" edge="1">
          <mxGeometry width="100" height="100" relative="1" as="geometry">
            <mxPoint x="549" y="-331" as="sourcePoint" />
            <mxPoint x="549" y="-440" as="targetPoint" />
          </mxGeometry>
        </mxCell>
        <mxCell id="1gYb4sTMnEVi2AJFtTjA-153" value="" style="fontSize=16;html=1;endArrow=ERoneToMany;rounded=0;startSize=8;endSize=8;fontStyle=1" parent="1" source="1gYb4sTMnEVi2AJFtTjA-151" target="1gYb4sTMnEVi2AJFtTjA-140" edge="1">
          <mxGeometry width="100" height="100" relative="1" as="geometry">
            <mxPoint x="440" y="-480" as="sourcePoint" />
            <mxPoint x="440" y="-309" as="targetPoint" />
          </mxGeometry>
        </mxCell>
        <mxCell id="1gYb4sTMnEVi2AJFtTjA-154" value="GIAO" style="shape=rhombus;perimeter=rhombusPerimeter;whiteSpace=wrap;html=1;align=center;fontSize=16;fontStyle=1" parent="1" vertex="1">
          <mxGeometry x="-359" y="60" width="120" height="60" as="geometry" />
        </mxCell>
        <mxCell id="1gYb4sTMnEVi2AJFtTjA-155" value="" style="fontSize=16;html=1;endArrow=ERoneToMany;rounded=0;startSize=8;endSize=8;edgeStyle=orthogonalEdgeStyle;fontStyle=1" parent="1" source="1gYb4sTMnEVi2AJFtTjA-154" target="1gYb4sTMnEVi2AJFtTjA-98" edge="1">
          <mxGeometry width="100" height="100" relative="1" as="geometry">
            <mxPoint x="-320" y="-400" as="sourcePoint" />
            <mxPoint x="-140" y="-290" as="targetPoint" />
            <Array as="points">
              <mxPoint x="-300" y="-280" />
              <mxPoint x="310" y="-280" />
            </Array>
          </mxGeometry>
        </mxCell>
        <mxCell id="1gYb4sTMnEVi2AJFtTjA-156" value="" style="fontSize=16;html=1;endArrow=ERmandOne;rounded=0;startSize=8;endSize=8;edgeStyle=orthogonalEdgeStyle;fontStyle=1" parent="1" source="1gYb4sTMnEVi2AJFtTjA-154" target="1gYb4sTMnEVi2AJFtTjA-17" edge="1">
          <mxGeometry width="100" height="100" relative="1" as="geometry">
            <mxPoint x="-311.27" y="709" as="sourcePoint" />
            <mxPoint x="-311.27" y="580" as="targetPoint" />
            <Array as="points">
              <mxPoint x="-299" y="594" />
            </Array>
          </mxGeometry>
        </mxCell>
        <mxCell id="1gYb4sTMnEVi2AJFtTjA-158" value="NHẬP" style="shape=rhombus;perimeter=rhombusPerimeter;whiteSpace=wrap;html=1;align=center;fontSize=16;fontStyle=1" parent="1" vertex="1">
          <mxGeometry x="40" y="860" width="120" height="60" as="geometry" />
        </mxCell>
        <mxCell id="1gYb4sTMnEVi2AJFtTjA-160" value="NguyenVatLieu" style="whiteSpace=wrap;html=1;align=center;fontSize=16;fontStyle=1" parent="1" vertex="1">
          <mxGeometry x="-280" y="860" width="120" height="60" as="geometry" />
        </mxCell>
        <mxCell id="1gYb4sTMnEVi2AJFtTjA-163" value="" style="fontSize=16;html=1;endArrow=ERzeroToMany;endFill=1;rounded=0;startSize=8;endSize=8;fontStyle=1" parent="1" source="1gYb4sTMnEVi2AJFtTjA-158" target="1gYb4sTMnEVi2AJFtTjA-18" edge="1">
          <mxGeometry width="100" height="100" relative="1" as="geometry">
            <mxPoint x="90" y="749" as="sourcePoint" />
            <mxPoint x="90" y="630" as="targetPoint" />
          </mxGeometry>
        </mxCell>
        <mxCell id="1gYb4sTMnEVi2AJFtTjA-173" value="SoLuong" style="ellipse;whiteSpace=wrap;html=1;align=center;fontSize=16;fontStyle=1" parent="1" vertex="1">
          <mxGeometry x="455.5" y="-217" width="119" height="68" as="geometry" />
        </mxCell>
        <mxCell id="1gYb4sTMnEVi2AJFtTjA-174" style="edgeStyle=none;curved=1;rounded=0;orthogonalLoop=1;jettySize=auto;html=1;fontSize=16;startSize=8;endSize=8;endArrow=none;endFill=0;fontStyle=1" parent="1" source="1gYb4sTMnEVi2AJFtTjA-125" target="1gYb4sTMnEVi2AJFtTjA-173" edge="1">
          <mxGeometry relative="1" as="geometry">
            <mxPoint x="465" y="-118" as="sourcePoint" />
            <mxPoint x="399" y="-190" as="targetPoint" />
          </mxGeometry>
        </mxCell>
        <mxCell id="1gYb4sTMnEVi2AJFtTjA-175" value="MaNguyen VatLieu" style="ellipse;whiteSpace=wrap;html=1;align=center;fontStyle=5;fontSize=16;" parent="1" vertex="1">
          <mxGeometry x="-370" y="662" width="120" height="66" as="geometry" />
        </mxCell>
        <mxCell id="1gYb4sTMnEVi2AJFtTjA-180" value="TenNguyen VatLieu" style="ellipse;whiteSpace=wrap;html=1;align=center;fontSize=16;fontStyle=1" parent="1" vertex="1">
          <mxGeometry x="-239" y="728" width="119" height="68" as="geometry" />
        </mxCell>
        <mxCell id="1gYb4sTMnEVi2AJFtTjA-181" value="DonViTinh" style="ellipse;whiteSpace=wrap;html=1;align=center;fontSize=16;fontStyle=1" parent="1" vertex="1">
          <mxGeometry x="-410" y="762" width="119" height="68" as="geometry" />
        </mxCell>
        <mxCell id="1gYb4sTMnEVi2AJFtTjA-189" style="edgeStyle=none;curved=1;rounded=0;orthogonalLoop=1;jettySize=auto;html=1;fontSize=16;startSize=8;endSize=8;endArrow=none;endFill=0;fontStyle=1" parent="1" source="1gYb4sTMnEVi2AJFtTjA-181" target="1gYb4sTMnEVi2AJFtTjA-160" edge="1">
          <mxGeometry relative="1" as="geometry">
            <mxPoint x="-418" y="850" as="sourcePoint" />
            <mxPoint x="-381" y="922" as="targetPoint" />
          </mxGeometry>
        </mxCell>
        <mxCell id="1gYb4sTMnEVi2AJFtTjA-190" style="edgeStyle=none;curved=1;rounded=0;orthogonalLoop=1;jettySize=auto;html=1;fontSize=16;startSize=8;endSize=8;endArrow=none;endFill=0;fontStyle=1" parent="1" source="1gYb4sTMnEVi2AJFtTjA-175" target="1gYb4sTMnEVi2AJFtTjA-160" edge="1">
          <mxGeometry relative="1" as="geometry">
            <mxPoint x="-364" y="985" as="sourcePoint" />
            <mxPoint x="-350" y="988" as="targetPoint" />
          </mxGeometry>
        </mxCell>
        <mxCell id="1gYb4sTMnEVi2AJFtTjA-191" style="edgeStyle=none;curved=1;rounded=0;orthogonalLoop=1;jettySize=auto;html=1;fontSize=16;startSize=8;endSize=8;endArrow=none;endFill=0;fontStyle=1" parent="1" source="1gYb4sTMnEVi2AJFtTjA-180" target="1gYb4sTMnEVi2AJFtTjA-160" edge="1">
          <mxGeometry relative="1" as="geometry">
            <mxPoint x="-375" y="1041" as="sourcePoint" />
            <mxPoint x="-350" y="1029" as="targetPoint" />
          </mxGeometry>
        </mxCell>
        <mxCell id="1gYb4sTMnEVi2AJFtTjA-196" value="SuCO" style="whiteSpace=wrap;html=1;align=center;fontSize=16;fontStyle=1" parent="1" vertex="1">
          <mxGeometry x="360" y="860" width="120" height="60" as="geometry" />
        </mxCell>
        <mxCell id="1gYb4sTMnEVi2AJFtTjA-197" value="TIẾP NHẬN" style="shape=rhombus;perimeter=rhombusPerimeter;whiteSpace=wrap;html=1;align=center;fontSize=16;fontStyle=1" parent="1" vertex="1">
          <mxGeometry x="360.5" y="714" width="120" height="60" as="geometry" />
        </mxCell>
        <mxCell id="1gYb4sTMnEVi2AJFtTjA-198" value="" style="fontSize=16;html=1;endArrow=ERoneToMany;rounded=0;startSize=8;endSize=8;fontStyle=1" parent="1" source="1gYb4sTMnEVi2AJFtTjA-197" target="1gYb4sTMnEVi2AJFtTjA-19" edge="1">
          <mxGeometry width="100" height="100" relative="1" as="geometry">
            <mxPoint x="350" y="718" as="sourcePoint" />
            <mxPoint x="220" y="708" as="targetPoint" />
          </mxGeometry>
        </mxCell>
        <mxCell id="1gYb4sTMnEVi2AJFtTjA-199" value="" style="fontSize=16;html=1;endArrow=ERzeroToMany;endFill=1;rounded=0;startSize=8;endSize=8;fontStyle=1" parent="1" source="1gYb4sTMnEVi2AJFtTjA-197" target="1gYb4sTMnEVi2AJFtTjA-196" edge="1">
          <mxGeometry width="100" height="100" relative="1" as="geometry">
            <mxPoint x="419.44" y="790" as="sourcePoint" />
            <mxPoint x="419.44" y="930" as="targetPoint" />
          </mxGeometry>
        </mxCell>
        <mxCell id="1gYb4sTMnEVi2AJFtTjA-200" value="MaSuCo" style="ellipse;whiteSpace=wrap;html=1;align=center;fontStyle=5;fontSize=16;" parent="1" vertex="1">
          <mxGeometry x="200" y="750" width="120" height="66" as="geometry" />
        </mxCell>
        <mxCell id="1gYb4sTMnEVi2AJFtTjA-202" value="NoiDung" style="ellipse;whiteSpace=wrap;html=1;align=center;fontSize=16;fontStyle=1" parent="1" vertex="1">
          <mxGeometry x="175.5" y="842" width="119" height="68" as="geometry" />
        </mxCell>
        <mxCell id="1gYb4sTMnEVi2AJFtTjA-203" style="edgeStyle=none;curved=1;rounded=0;orthogonalLoop=1;jettySize=auto;html=1;fontSize=16;startSize=8;endSize=8;endArrow=none;endFill=0;fontStyle=1" parent="1" source="1gYb4sTMnEVi2AJFtTjA-196" target="1gYb4sTMnEVi2AJFtTjA-200" edge="1">
          <mxGeometry relative="1" as="geometry">
            <mxPoint x="350" y="893" as="sourcePoint" />
            <mxPoint x="312" y="820" as="targetPoint" />
          </mxGeometry>
        </mxCell>
        <mxCell id="1gYb4sTMnEVi2AJFtTjA-204" style="edgeStyle=none;curved=1;rounded=0;orthogonalLoop=1;jettySize=auto;html=1;fontSize=16;startSize=8;endSize=8;endArrow=none;endFill=0;fontStyle=1" parent="1" source="1gYb4sTMnEVi2AJFtTjA-196" target="1gYb4sTMnEVi2AJFtTjA-202" edge="1">
          <mxGeometry relative="1" as="geometry">
            <mxPoint x="396" y="870" as="sourcePoint" />
            <mxPoint x="332" y="812" as="targetPoint" />
          </mxGeometry>
        </mxCell>
        <mxCell id="1gYb4sTMnEVi2AJFtTjA-205" value="PHẢN HỒI" style="shape=rhombus;perimeter=rhombusPerimeter;whiteSpace=wrap;html=1;align=center;fontSize=16;fontStyle=1" parent="1" vertex="1">
          <mxGeometry x="360" y="1020" width="120" height="60" as="geometry" />
        </mxCell>
        <mxCell id="1gYb4sTMnEVi2AJFtTjA-206" value="" style="fontSize=16;html=1;endArrow=ERzeroToMany;endFill=1;rounded=0;startSize=8;endSize=8;fontStyle=1" parent="1" source="1gYb4sTMnEVi2AJFtTjA-205" target="1gYb4sTMnEVi2AJFtTjA-196" edge="1">
          <mxGeometry width="100" height="100" relative="1" as="geometry">
            <mxPoint x="280" y="970" as="sourcePoint" />
            <mxPoint x="280" y="1110" as="targetPoint" />
          </mxGeometry>
        </mxCell>
        <mxCell id="1gYb4sTMnEVi2AJFtTjA-207" value="" style="fontSize=16;html=1;endArrow=ERmandOne;rounded=0;startSize=8;endSize=8;edgeStyle=orthogonalEdgeStyle;jumpStyle=arc;fontStyle=1" parent="1" source="1gYb4sTMnEVi2AJFtTjA-205" target="1gYb4sTMnEVi2AJFtTjA-3" edge="1">
          <mxGeometry width="100" height="100" relative="1" as="geometry">
            <mxPoint x="-510" y="-100" as="sourcePoint" />
            <mxPoint x="-490" y="-34" as="targetPoint" />
            <Array as="points">
              <mxPoint x="-420" y="1050" />
              <mxPoint x="-420" y="-109" />
            </Array>
          </mxGeometry>
        </mxCell>
        <mxCell id="aBJJXYj70xElWM3S_Ouh-1" value="" style="fontSize=16;html=1;endArrow=ERzeroToMany;endFill=1;rounded=0;startSize=8;endSize=8;fontStyle=1" parent="1" source="1gYb4sTMnEVi2AJFtTjA-158" target="1gYb4sTMnEVi2AJFtTjA-160" edge="1">
          <mxGeometry width="100" height="100" relative="1" as="geometry">
            <mxPoint x="-41" y="1062" as="sourcePoint" />
            <mxPoint x="-41" y="826" as="targetPoint" />
          </mxGeometry>
        </mxCell>
        <mxCell id="aBJJXYj70xElWM3S_Ouh-2" value="NgayNhap" style="ellipse;whiteSpace=wrap;html=1;align=center;fontSize=16;fontStyle=1" parent="1" vertex="1">
          <mxGeometry x="71" y="950" width="119" height="68" as="geometry" />
        </mxCell>
        <mxCell id="aBJJXYj70xElWM3S_Ouh-4" value="SoLuong" style="ellipse;whiteSpace=wrap;html=1;align=center;fontSize=16;fontStyle=1" parent="1" vertex="1">
          <mxGeometry x="-79" y="762" width="119" height="68" as="geometry" />
        </mxCell>
        <mxCell id="aBJJXYj70xElWM3S_Ouh-5" value="DonGia" style="ellipse;whiteSpace=wrap;html=1;align=center;fontSize=16;fontStyle=1" parent="1" vertex="1">
          <mxGeometry x="-110" y="920" width="119" height="68" as="geometry" />
        </mxCell>
        <mxCell id="aBJJXYj70xElWM3S_Ouh-6" style="edgeStyle=none;curved=1;rounded=0;orthogonalLoop=1;jettySize=auto;html=1;fontSize=16;startSize=8;endSize=8;endArrow=none;endFill=0;fontStyle=1" parent="1" source="aBJJXYj70xElWM3S_Ouh-4" target="1gYb4sTMnEVi2AJFtTjA-158" edge="1">
          <mxGeometry relative="1" as="geometry">
            <mxPoint x="-180" y="805" as="sourcePoint" />
            <mxPoint x="-201" y="870" as="targetPoint" />
          </mxGeometry>
        </mxCell>
        <mxCell id="aBJJXYj70xElWM3S_Ouh-7" style="edgeStyle=none;curved=1;rounded=0;orthogonalLoop=1;jettySize=auto;html=1;fontSize=16;startSize=8;endSize=8;endArrow=none;endFill=0;fontStyle=1" parent="1" source="aBJJXYj70xElWM3S_Ouh-5" target="1gYb4sTMnEVi2AJFtTjA-158" edge="1">
          <mxGeometry relative="1" as="geometry">
            <mxPoint x="26" y="833" as="sourcePoint" />
            <mxPoint x="87" y="882" as="targetPoint" />
          </mxGeometry>
        </mxCell>
        <mxCell id="aBJJXYj70xElWM3S_Ouh-8" style="edgeStyle=none;curved=1;rounded=0;orthogonalLoop=1;jettySize=auto;html=1;fontSize=16;startSize=8;endSize=8;endArrow=none;endFill=0;fontStyle=1" parent="1" source="aBJJXYj70xElWM3S_Ouh-2" target="1gYb4sTMnEVi2AJFtTjA-158" edge="1">
          <mxGeometry relative="1" as="geometry">
            <mxPoint x="7" y="944" as="sourcePoint" />
            <mxPoint x="78" y="914" as="targetPoint" />
          </mxGeometry>
        </mxCell>
        <mxCell id="aBJJXYj70xElWM3S_Ouh-9" value="NgayTiep NhanSuCo" style="ellipse;whiteSpace=wrap;html=1;align=center;fontSize=16;fontStyle=1" parent="1" vertex="1">
          <mxGeometry x="212" y="662" width="119" height="68" as="geometry" />
        </mxCell>
        <mxCell id="aBJJXYj70xElWM3S_Ouh-10" style="edgeStyle=none;curved=1;rounded=0;orthogonalLoop=1;jettySize=auto;html=1;fontSize=16;startSize=8;endSize=8;endArrow=none;endFill=0;fontStyle=1" parent="1" source="1gYb4sTMnEVi2AJFtTjA-197" target="aBJJXYj70xElWM3S_Ouh-9" edge="1">
          <mxGeometry relative="1" as="geometry">
            <mxPoint x="370" y="875" as="sourcePoint" />
            <mxPoint x="329" y="857" as="targetPoint" />
          </mxGeometry>
        </mxCell>
        <mxCell id="MJKHC8CTT8zhTkJdiOv6-2" value="PhanTram KhuyenMai" style="ellipse;whiteSpace=wrap;html=1;align=center;fontSize=16;fontStyle=1" parent="1" vertex="1">
          <mxGeometry x="530" y="-460" width="119" height="68" as="geometry" />
        </mxCell>
        <mxCell id="MJKHC8CTT8zhTkJdiOv6-3" style="edgeStyle=none;curved=1;rounded=0;orthogonalLoop=1;jettySize=auto;html=1;fontSize=16;startSize=8;endSize=8;endArrow=none;endFill=0;fontStyle=1" parent="1" source="MJKHC8CTT8zhTkJdiOv6-2" target="1gYb4sTMnEVi2AJFtTjA-140" edge="1">
          <mxGeometry relative="1" as="geometry">
            <mxPoint x="520" y="-341" as="sourcePoint" />
            <mxPoint x="410" y="-412" as="targetPoint" />
          </mxGeometry>
        </mxCell>
        <mxCell id="CAh6_vlVWdyPwuq8I-LE-1" value="" style="fontSize=16;html=1;endArrow=ERmandOne;rounded=0;startSize=8;endSize=8;fontStyle=1;edgeStyle=orthogonalEdgeStyle;" parent="1" source="5oxzWTPl3nbGzZYuVht6-8" target="1gYb4sTMnEVi2AJFtTjA-1" edge="1">
          <mxGeometry width="100" height="100" relative="1" as="geometry">
            <mxPoint x="650.4761904761904" y="714.011904761905" as="sourcePoint" />
            <mxPoint x="550" y="490" as="targetPoint" />
            <Array as="points">
              <mxPoint x="651" y="680" />
              <mxPoint x="860" y="680" />
              <mxPoint x="860" y="409" />
            </Array>
          </mxGeometry>
        </mxCell>
        <mxCell id="CAh6_vlVWdyPwuq8I-LE-7" value="" style="fontSize=16;html=1;endArrow=ERoneToMany;rounded=0;startSize=8;endSize=8;fontStyle=1" parent="1" source="5oxzWTPl3nbGzZYuVht6-8" target="5oxzWTPl3nbGzZYuVht6-7" edge="1">
          <mxGeometry width="100" height="100" relative="1" as="geometry">
            <mxPoint x="650.5" y="774" as="sourcePoint" />
            <mxPoint x="650.5" y="860" as="targetPoint" />
          </mxGeometry>
        </mxCell>
        <mxCell id="CAh6_vlVWdyPwuq8I-LE-10" value="TrangThai" style="ellipse;whiteSpace=wrap;html=1;align=center;fontSize=16;fontStyle=1" parent="1" vertex="1">
          <mxGeometry x="470" y="920" width="120" height="68" as="geometry" />
        </mxCell>
        <mxCell id="CAh6_vlVWdyPwuq8I-LE-11" value="GhiChu" style="ellipse;whiteSpace=wrap;html=1;align=center;fontSize=16;fontStyle=1" parent="1" vertex="1">
          <mxGeometry x="620" y="940" width="120" height="68" as="geometry" />
        </mxCell>
        <mxCell id="CAh6_vlVWdyPwuq8I-LE-14" style="edgeStyle=none;curved=1;rounded=0;orthogonalLoop=1;jettySize=auto;html=1;fontSize=16;startSize=8;endSize=8;endArrow=none;endFill=0;fontStyle=1" parent="1" target="CAh6_vlVWdyPwuq8I-LE-10" edge="1">
          <mxGeometry relative="1" as="geometry">
            <mxPoint x="593.9776636670686" y="920" as="sourcePoint" />
            <mxPoint x="585" y="859" as="targetPoint" />
          </mxGeometry>
        </mxCell>
        <mxCell id="CAh6_vlVWdyPwuq8I-LE-15" style="edgeStyle=none;curved=1;rounded=0;orthogonalLoop=1;jettySize=auto;html=1;fontSize=16;startSize=8;endSize=8;endArrow=none;endFill=0;fontStyle=1" parent="1" target="CAh6_vlVWdyPwuq8I-LE-11" edge="1">
          <mxGeometry relative="1" as="geometry">
            <mxPoint x="661.2391360613046" y="920" as="sourcePoint" />
            <mxPoint x="597" y="947" as="targetPoint" />
          </mxGeometry>
        </mxCell>
        <mxCell id="CAh6_vlVWdyPwuq8I-LE-17" style="edgeStyle=none;curved=1;rounded=0;orthogonalLoop=1;jettySize=auto;html=1;fontSize=16;startSize=8;endSize=8;endArrow=none;endFill=0;fontStyle=1" parent="1" target="5oxzWTPl3nbGzZYuVht6-3" edge="1">
          <mxGeometry relative="1" as="geometry">
            <mxPoint x="710.5" y="916.2309957150087" as="sourcePoint" />
            <mxPoint x="735.0260237342909" y="823.6265022603079" as="targetPoint" />
          </mxGeometry>
        </mxCell>
        <mxCell id="h8AalQ7lRVNkQWqvH0xu-1" value="TrangThai" style="ellipse;whiteSpace=wrap;html=1;align=center;fontSize=16;fontStyle=1" parent="1" vertex="1">
          <mxGeometry x="220" y="940" width="120" height="68" as="geometry" />
        </mxCell>
        <mxCell id="h8AalQ7lRVNkQWqvH0xu-2" style="edgeStyle=none;curved=1;rounded=0;orthogonalLoop=1;jettySize=auto;html=1;fontSize=16;startSize=8;endSize=8;endArrow=none;endFill=0;fontStyle=1" parent="1" source="1gYb4sTMnEVi2AJFtTjA-196" target="h8AalQ7lRVNkQWqvH0xu-1" edge="1">
          <mxGeometry relative="1" as="geometry">
            <mxPoint x="370" y="895" as="sourcePoint" />
            <mxPoint x="304" y="890" as="targetPoint" />
          </mxGeometry>
        </mxCell>
        <mxCell id="5oxzWTPl3nbGzZYuVht6-3" value="NgayLamViec" style="ellipse;shape=doubleEllipse;margin=3;whiteSpace=wrap;html=1;align=center;fontSize=16;fontStyle=1" vertex="1" parent="1">
          <mxGeometry x="760" y="930" width="120" height="68" as="geometry" />
        </mxCell>
        <mxCell id="5oxzWTPl3nbGzZYuVht6-4" value="ĐƯỢC&lt;br&gt;CHẾ BIẾN" style="shape=rhombus;perimeter=rhombusPerimeter;whiteSpace=wrap;html=1;align=center;fontSize=16;fontStyle=1" vertex="1" parent="1">
          <mxGeometry x="890" y="560" width="120" height="60" as="geometry" />
        </mxCell>
        <mxCell id="5oxzWTPl3nbGzZYuVht6-5" value="" style="fontSize=16;html=1;endArrow=ERoneToMany;rounded=0;startSize=8;endSize=8;fontStyle=1;edgeStyle=orthogonalEdgeStyle;" edge="1" parent="1" source="5oxzWTPl3nbGzZYuVht6-4" target="1gYb4sTMnEVi2AJFtTjA-106">
          <mxGeometry width="100" height="100" relative="1" as="geometry">
            <mxPoint x="1080" y="266" as="sourcePoint" />
            <mxPoint x="1080" y="157" as="targetPoint" />
            <Array as="points">
              <mxPoint x="950" y="-109" />
            </Array>
          </mxGeometry>
        </mxCell>
        <mxCell id="5oxzWTPl3nbGzZYuVht6-6" value="" style="fontSize=16;html=1;endArrow=ERoneToMany;rounded=0;startSize=8;endSize=8;fontStyle=1;edgeStyle=orthogonalEdgeStyle;" edge="1" parent="1" source="5oxzWTPl3nbGzZYuVht6-4" target="1gYb4sTMnEVi2AJFtTjA-160">
          <mxGeometry width="100" height="100" relative="1" as="geometry">
            <mxPoint x="-180.21000000000004" y="1104.5" as="sourcePoint" />
            <mxPoint x="-180" y="996" as="targetPoint" />
            <Array as="points">
              <mxPoint x="950" y="1100" />
              <mxPoint x="-220" y="1100" />
            </Array>
          </mxGeometry>
        </mxCell>
        <mxCell id="5oxzWTPl3nbGzZYuVht6-7" value="LichLamViec" style="whiteSpace=wrap;html=1;align=center;fontSize=16;fontStyle=1" vertex="1" parent="1">
          <mxGeometry x="590.5" y="860" width="120" height="60" as="geometry" />
        </mxCell>
        <mxCell id="5oxzWTPl3nbGzZYuVht6-8" value="CÓ" style="shape=rhombus;perimeter=rhombusPerimeter;whiteSpace=wrap;html=1;align=center;fontSize=16;fontStyle=1" vertex="1" parent="1">
          <mxGeometry x="590" y="714" width="120" height="60" as="geometry" />
        </mxCell>
        <mxCell id="5oxzWTPl3nbGzZYuVht6-10" value="MaLich LamViec" style="ellipse;whiteSpace=wrap;html=1;align=center;fontStyle=5;fontSize=16;" vertex="1" parent="1">
          <mxGeometry x="720" y="794" width="120" height="66" as="geometry" />
        </mxCell>
        <mxCell id="5oxzWTPl3nbGzZYuVht6-11" style="edgeStyle=none;curved=1;rounded=0;orthogonalLoop=1;jettySize=auto;html=1;fontSize=16;startSize=8;endSize=8;endArrow=none;endFill=0;fontStyle=1" edge="1" parent="1" source="5oxzWTPl3nbGzZYuVht6-7" target="5oxzWTPl3nbGzZYuVht6-10">
          <mxGeometry relative="1" as="geometry">
            <mxPoint x="720.5" y="926.2309957150087" as="sourcePoint" />
            <mxPoint x="783" y="953" as="targetPoint" />
          </mxGeometry>
        </mxCell>
      </root>
    </mxGraphModel>
  </diagram>
</mxfile>
